# xmcd
#
# Track frame offsets:
#	187
#	25637
#	46530
#	69190
#	99375
#	120977
#	141295
#	161900
#	183600
#	206550
#	227677
#
# Disc length: 3330 seconds
#
# Revision: 1
# Processed by: cddbd v1.5.1PL0 Copyright (c) Steve Scherf et al.
# Submitted via: CDex 1.50Beta5
#
DISCID=880d000b
DTITLE=森下玲可 - ZERO
DYEAR=1995
DGENRE=
TTITLE0=LEAVE ME ALONE
TTITLE1=出遅れて黄昏て
TTITLE2=傷つけてPrecious Love
TTITLE3=メロディー
TTITLE4=Pain
TTITLE5=Love of Destiny
TTITLE6=MIDNIGHT LOVER
TTITLE7=大胆不敵
TTITLE8=終止符
TTITLE9=CRAZY LOVE
TTITLE10=あなたに逢いたい
EXTD=
EXTT0=
EXTT1=
EXTT2=
EXTT3=
EXTT4=
EXTT5=
EXTT6=
EXTT7=
EXTT8=
EXTT9=
EXTT10=
PLAYORDER=
